<mxfile host="app.diagrams.net" agent="Mozilla/5.0 (Macintosh; Intel Mac OS X 10_15_7) AppleWebKit/605.1.15 (KHTML, like Gecko) Version/17.6 Safari/605.1.15" version="24.7.14">
  <diagram name="Page-1" id="TznMMKacaLLV-deFBsGR">
    <mxGraphModel dx="1795" dy="712" grid="0" gridSize="10" guides="1" tooltips="1" connect="1" arrows="1" fold="1" page="0" pageScale="1" pageWidth="827" pageHeight="1169" math="0" shadow="0">
      <root>
        <mxCell id="0" />
        <mxCell id="1" parent="0" />
        <mxCell id="B11OeWX0KtariZhBaSKQ-3" value="Utilisateur&amp;nbsp;" style="shape=umlActor;verticalLabelPosition=bottom;verticalAlign=top;html=1;outlineConnect=0;fillColor=#FFCE9F;" parent="1" vertex="1">
          <mxGeometry x="-71" y="364.5" width="54" height="75" as="geometry" />
        </mxCell>
        <mxCell id="B11OeWX0KtariZhBaSKQ-5" value="" style="whiteSpace=wrap;html=1;fillColor=#66FFFF;" parent="1" vertex="1">
          <mxGeometry x="116" y="142" width="508" height="588" as="geometry" />
        </mxCell>
        <mxCell id="B11OeWX0KtariZhBaSKQ-6" value="&lt;font style=&quot;font-size: 24px;&quot;&gt;Bouilloire électrique&amp;nbsp;&lt;/font&gt;" style="text;html=1;align=center;verticalAlign=middle;resizable=0;points=[];autosize=1;strokeColor=none;fillColor=none;" parent="1" vertex="1">
          <mxGeometry x="253" y="166" width="234" height="40" as="geometry" />
        </mxCell>
        <mxCell id="B11OeWX0KtariZhBaSKQ-8" value="Arrêter automatiquement le chauffage&amp;nbsp;" style="ellipse;whiteSpace=wrap;html=1;fillColor=#FFFF99;" parent="1" vertex="1">
          <mxGeometry x="258" y="217" width="224" height="80" as="geometry" />
        </mxCell>
        <mxCell id="B11OeWX0KtariZhBaSKQ-17" value="" style="edgeStyle=orthogonalEdgeStyle;rounded=0;orthogonalLoop=1;jettySize=auto;html=1;" parent="1" source="B11OeWX0KtariZhBaSKQ-11" target="B11OeWX0KtariZhBaSKQ-8" edge="1">
          <mxGeometry relative="1" as="geometry" />
        </mxCell>
        <mxCell id="B11OeWX0KtariZhBaSKQ-11" value="Bouillir de l’eau de manière automatique&amp;nbsp;" style="ellipse;whiteSpace=wrap;html=1;fillColor=#FFFF99;" parent="1" vertex="1">
          <mxGeometry x="258" y="362" width="224" height="80" as="geometry" />
        </mxCell>
        <mxCell id="B11OeWX0KtariZhBaSKQ-18" value="" style="edgeStyle=orthogonalEdgeStyle;rounded=0;orthogonalLoop=1;jettySize=auto;html=1;" parent="1" source="B11OeWX0KtariZhBaSKQ-12" target="B11OeWX0KtariZhBaSKQ-11" edge="1">
          <mxGeometry relative="1" as="geometry" />
        </mxCell>
        <mxCell id="B11OeWX0KtariZhBaSKQ-12" value="Arrêter automatiquement le chauffage&amp;nbsp;&lt;div&gt;{Refines = permettre l’arrêt manuelle du chauffage}&lt;/div&gt;" style="ellipse;whiteSpace=wrap;html=1;fillColor=#FFFF99;" parent="1" vertex="1">
          <mxGeometry x="258" y="559" width="224" height="143" as="geometry" />
        </mxCell>
        <mxCell id="B11OeWX0KtariZhBaSKQ-16" value="" style="edgeStyle=orthogonalEdgeStyle;rounded=0;orthogonalLoop=1;jettySize=auto;html=1;" parent="1" source="B11OeWX0KtariZhBaSKQ-3" edge="1">
          <mxGeometry relative="1" as="geometry">
            <mxPoint x="258" y="402" as="targetPoint" />
          </mxGeometry>
        </mxCell>
        <mxCell id="B11OeWX0KtariZhBaSKQ-25" value="" style="rounded=1;whiteSpace=wrap;html=1;fillColor=#FFFF99;" parent="1" vertex="1">
          <mxGeometry x="675" y="122" width="218" height="95" as="geometry" />
        </mxCell>
        <mxCell id="B11OeWX0KtariZhBaSKQ-35" value="" style="edgeStyle=orthogonalEdgeStyle;rounded=0;orthogonalLoop=1;jettySize=auto;html=1;" parent="1" source="B11OeWX0KtariZhBaSKQ-23" edge="1">
          <mxGeometry relative="1" as="geometry">
            <mxPoint x="658" y="311" as="targetPoint" />
          </mxGeometry>
        </mxCell>
        <mxCell id="B11OeWX0KtariZhBaSKQ-23" value="&lt;p style=&quot;margin: 0px; font-style: normal; font-variant-caps: normal; font-stretch: normal; line-height: normal; font-size-adjust: none; font-kerning: auto; font-variant-alternates: normal; font-variant-ligatures: normal; font-variant-numeric: normal; font-variant-east-asian: normal; font-variant-position: normal; font-variant-emoji: normal; font-feature-settings: normal; font-optical-sizing: auto; font-variation-settings: normal;&quot;&gt;L&#39;eau appariat implicitement comme&lt;/p&gt;&lt;p style=&quot;margin: 0px; font-style: normal; font-variant-caps: normal; font-stretch: normal; line-height: normal; font-size-adjust: none; font-kerning: auto; font-variant-alternates: normal; font-variant-ligatures: normal; font-variant-numeric: normal; font-variant-east-asian: normal; font-variant-position: normal; font-variant-emoji: normal; font-feature-settings: normal; font-optical-sizing: auto; font-variation-settings: normal;&quot;&gt;&amp;nbsp;matière d&#39;oeuvre dans le cas,&amp;nbsp;&lt;/p&gt;&lt;p style=&quot;margin: 0px; font-style: normal; font-variant-caps: normal; font-stretch: normal; line-height: normal; font-size-adjust: none; font-kerning: auto; font-variant-alternates: normal; font-variant-ligatures: normal; font-variant-numeric: normal; font-variant-east-asian: normal; font-variant-position: normal; font-variant-emoji: normal; font-feature-settings: normal; font-optical-sizing: auto; font-variation-settings: normal;&quot;&gt;mais nous la faison apparaitre&amp;nbsp;&lt;/p&gt;&lt;p style=&quot;margin: 0px; font-style: normal; font-variant-caps: normal; font-stretch: normal; line-height: normal; font-size-adjust: none; font-kerning: auto; font-variant-alternates: normal; font-variant-ligatures: normal; font-variant-numeric: normal; font-variant-east-asian: normal; font-variant-position: normal; font-variant-emoji: normal; font-feature-settings: normal; font-optical-sizing: auto; font-variation-settings: normal;&quot;&gt;explicitement dans ce diagramme.&lt;/p&gt;" style="text;html=1;align=center;verticalAlign=middle;resizable=0;points=[];autosize=1;strokeColor=none;fillColor=#FFFF99;" parent="1" vertex="1">
          <mxGeometry x="679" y="133.5" width="210" height="72" as="geometry" />
        </mxCell>
        <mxCell id="B11OeWX0KtariZhBaSKQ-31" value="" style="edgeStyle=orthogonalEdgeStyle;rounded=0;orthogonalLoop=1;jettySize=auto;html=1;" parent="1" source="B11OeWX0KtariZhBaSKQ-28" target="B11OeWX0KtariZhBaSKQ-11" edge="1">
          <mxGeometry relative="1" as="geometry" />
        </mxCell>
        <mxCell id="B11OeWX0KtariZhBaSKQ-28" value="" style="html=1;whiteSpace=wrap;shape=isoCube2;backgroundOutline=1;isoAngle=15;fillColor=#33FFFF;" parent="1" vertex="1">
          <mxGeometry x="739" y="264.5" width="90" height="100" as="geometry" />
        </mxCell>
        <mxCell id="B11OeWX0KtariZhBaSKQ-32" value="" style="edgeStyle=orthogonalEdgeStyle;rounded=0;orthogonalLoop=1;jettySize=auto;html=1;" parent="1" source="B11OeWX0KtariZhBaSKQ-29" target="B11OeWX0KtariZhBaSKQ-11" edge="1">
          <mxGeometry relative="1" as="geometry" />
        </mxCell>
        <mxCell id="B11OeWX0KtariZhBaSKQ-29" value="" style="html=1;whiteSpace=wrap;shape=isoCube2;backgroundOutline=1;isoAngle=15;fillColor=#3399FF;" parent="1" vertex="1">
          <mxGeometry x="739" y="442" width="90" height="100" as="geometry" />
        </mxCell>
        <mxCell id="B11OeWX0KtariZhBaSKQ-33" value="Eau" style="text;html=1;align=center;verticalAlign=middle;resizable=0;points=[];autosize=1;strokeColor=none;fillColor=none;" parent="1" vertex="1">
          <mxGeometry x="764.5" y="378" width="39" height="26" as="geometry" />
        </mxCell>
        <mxCell id="B11OeWX0KtariZhBaSKQ-34" value="Réseau&amp;nbsp;&lt;div&gt;électrique&amp;nbsp;&lt;/div&gt;" style="text;html=1;align=center;verticalAlign=middle;resizable=0;points=[];autosize=1;strokeColor=none;fillColor=none;" parent="1" vertex="1">
          <mxGeometry x="751" y="562" width="73" height="40" as="geometry" />
        </mxCell>
      </root>
    </mxGraphModel>
  </diagram>
</mxfile>
